<svg width="10" height="17" viewBox="0 0 10 17" fill="none" xmlns="http://www.w3.org/2000/svg">
<path d="M8 1.5C8.26522 1.5 8.51957 1.60536 8.70711 1.79289C8.89464 1.98043 9 2.23478 9 2.5V14.5C9 14.7652 8.89464 15.0196 8.70711 15.2071C8.51957 15.3946 8.26522 15.5 8 15.5H2C1.73478 15.5 1.48043 15.3946 1.29289 15.2071C1.10536 15.0196 1 14.7652 1 14.5V2.5C1 2.23478 1.10536 1.98043 1.29289 1.79289C1.48043 1.60536 1.73478 1.5 2 1.5H8ZM2 0.5C1.46957 0.5 0.960859 0.710714 0.585786 1.08579C0.210714 1.46086 0 1.96957 0 2.5V14.5C0 15.0304 0.210714 15.5391 0.585786 15.9142C0.960859 16.2893 1.46957 16.5 2 16.5H8C8.53043 16.5 9.03914 16.2893 9.41421 15.9142C9.78929 15.5391 10 15.0304 10 14.5V2.5C10 1.96957 9.78929 1.46086 9.41421 1.08579C9.03914 0.710714 8.53043 0.5 8 0.5H2Z" fill="#575757"/>
</svg>
